<mxfile host="app.diagrams.net" agent="Mozilla/5.0 (Windows NT 10.0; Win64; x64) AppleWebKit/537.36 (KHTML, like Gecko) Chrome/135.0.0.0 Safari/537.36" version="26.2.8">
  <diagram name="第 1 页" id="emLSLBHFfiPBjdPvXPqK">
    <mxGraphModel dx="1313" dy="778" grid="1" gridSize="10" guides="1" tooltips="1" connect="1" arrows="1" fold="1" page="1" pageScale="1" pageWidth="1654" pageHeight="1169" math="1" shadow="0">
      <root>
        <mxCell id="0" />
        <mxCell id="1" parent="0" />
        <mxCell id="f1m_IaJI3R48xUZBdV02-205" value="" style="rounded=1;whiteSpace=wrap;html=1;fillColor=none;dashed=1;dashPattern=8 8;strokeColor=#660000;" vertex="1" parent="1">
          <mxGeometry x="580" y="20" width="270" height="240" as="geometry" />
        </mxCell>
        <mxCell id="f1m_IaJI3R48xUZBdV02-2" value="" style="curved=1;endArrow=none;html=1;rounded=0;fillColor=#dae8fc;strokeColor=#6c8ebf;startFill=0;strokeWidth=5;" edge="1" parent="1">
          <mxGeometry width="50" height="50" relative="1" as="geometry">
            <mxPoint x="60" y="310" as="sourcePoint" />
            <mxPoint x="110" y="260" as="targetPoint" />
            <Array as="points">
              <mxPoint x="110" y="310" />
              <mxPoint x="60" y="260" />
            </Array>
          </mxGeometry>
        </mxCell>
        <mxCell id="f1m_IaJI3R48xUZBdV02-203" value="" style="group" vertex="1" connectable="0" parent="1">
          <mxGeometry x="130" y="250" width="130" height="100" as="geometry" />
        </mxCell>
        <mxCell id="f1m_IaJI3R48xUZBdV02-89" value="&lt;font style=&quot;font-size: 16px;&quot;&gt;$$(L_{1},F)$$&lt;/font&gt;" style="text;html=1;align=center;verticalAlign=middle;whiteSpace=wrap;rounded=0;" vertex="1" parent="f1m_IaJI3R48xUZBdV02-203">
          <mxGeometry x="10" y="80" width="40" height="20" as="geometry" />
        </mxCell>
        <mxCell id="f1m_IaJI3R48xUZBdV02-126" value="" style="shape=cube;whiteSpace=wrap;html=1;boundedLbl=1;backgroundOutline=1;darkOpacity=0.05;darkOpacity2=0.1;size=10;aspect=fixed;fillColor=#dae8fc;strokeColor=#6c8ebf;" vertex="1" parent="f1m_IaJI3R48xUZBdV02-203">
          <mxGeometry x="100" y="40" width="30" height="30" as="geometry" />
        </mxCell>
        <mxCell id="f1m_IaJI3R48xUZBdV02-129" value="" style="shape=cube;whiteSpace=wrap;html=1;boundedLbl=1;backgroundOutline=1;darkOpacity=0.05;darkOpacity2=0.1;size=10;aspect=fixed;fillColor=#dae8fc;strokeColor=#6c8ebf;" vertex="1" parent="f1m_IaJI3R48xUZBdV02-203">
          <mxGeometry x="80" y="40" width="30" height="30" as="geometry" />
        </mxCell>
        <mxCell id="f1m_IaJI3R48xUZBdV02-131" value="" style="shape=cube;whiteSpace=wrap;html=1;boundedLbl=1;backgroundOutline=1;darkOpacity=0.05;darkOpacity2=0.1;size=10;aspect=fixed;fillColor=#dae8fc;strokeColor=#6c8ebf;" vertex="1" parent="f1m_IaJI3R48xUZBdV02-203">
          <mxGeometry x="100" y="20" width="30" height="30" as="geometry" />
        </mxCell>
        <mxCell id="f1m_IaJI3R48xUZBdV02-132" value="" style="shape=cube;whiteSpace=wrap;html=1;boundedLbl=1;backgroundOutline=1;darkOpacity=0.05;darkOpacity2=0.1;size=10;aspect=fixed;fillColor=#dae8fc;strokeColor=#6c8ebf;" vertex="1" parent="f1m_IaJI3R48xUZBdV02-203">
          <mxGeometry x="80" y="20" width="30" height="30" as="geometry" />
        </mxCell>
        <mxCell id="f1m_IaJI3R48xUZBdV02-134" value="" style="shape=cube;whiteSpace=wrap;html=1;boundedLbl=1;backgroundOutline=1;darkOpacity=0.05;darkOpacity2=0.1;size=10;aspect=fixed;fillColor=#dae8fc;strokeColor=#6c8ebf;" vertex="1" parent="f1m_IaJI3R48xUZBdV02-203">
          <mxGeometry x="100" width="30" height="30" as="geometry" />
        </mxCell>
        <mxCell id="f1m_IaJI3R48xUZBdV02-135" value="" style="shape=cube;whiteSpace=wrap;html=1;boundedLbl=1;backgroundOutline=1;darkOpacity=0.05;darkOpacity2=0.1;size=10;aspect=fixed;fillColor=#dae8fc;strokeColor=#6c8ebf;" vertex="1" parent="f1m_IaJI3R48xUZBdV02-203">
          <mxGeometry x="80" width="30" height="30" as="geometry" />
        </mxCell>
        <mxCell id="f1m_IaJI3R48xUZBdV02-136" value="" style="shape=cube;whiteSpace=wrap;html=1;boundedLbl=1;backgroundOutline=1;darkOpacity=0.05;darkOpacity2=0.1;size=10;aspect=fixed;fillColor=#dae8fc;strokeColor=#6c8ebf;" vertex="1" parent="f1m_IaJI3R48xUZBdV02-203">
          <mxGeometry x="60" y="40" width="30" height="30" as="geometry" />
        </mxCell>
        <mxCell id="f1m_IaJI3R48xUZBdV02-137" value="" style="shape=cube;whiteSpace=wrap;html=1;boundedLbl=1;backgroundOutline=1;darkOpacity=0.05;darkOpacity2=0.1;size=10;aspect=fixed;fillColor=#dae8fc;strokeColor=#6c8ebf;" vertex="1" parent="f1m_IaJI3R48xUZBdV02-203">
          <mxGeometry x="40" y="40" width="30" height="30" as="geometry" />
        </mxCell>
        <mxCell id="f1m_IaJI3R48xUZBdV02-138" value="" style="shape=cube;whiteSpace=wrap;html=1;boundedLbl=1;backgroundOutline=1;darkOpacity=0.05;darkOpacity2=0.1;size=10;aspect=fixed;fillColor=#dae8fc;strokeColor=#6c8ebf;" vertex="1" parent="f1m_IaJI3R48xUZBdV02-203">
          <mxGeometry x="60" y="20" width="30" height="30" as="geometry" />
        </mxCell>
        <mxCell id="f1m_IaJI3R48xUZBdV02-139" value="" style="shape=cube;whiteSpace=wrap;html=1;boundedLbl=1;backgroundOutline=1;darkOpacity=0.05;darkOpacity2=0.1;size=10;aspect=fixed;fillColor=#dae8fc;strokeColor=#6c8ebf;" vertex="1" parent="f1m_IaJI3R48xUZBdV02-203">
          <mxGeometry x="40" y="20" width="30" height="30" as="geometry" />
        </mxCell>
        <mxCell id="f1m_IaJI3R48xUZBdV02-140" value="" style="shape=cube;whiteSpace=wrap;html=1;boundedLbl=1;backgroundOutline=1;darkOpacity=0.05;darkOpacity2=0.1;size=10;aspect=fixed;fillColor=#dae8fc;strokeColor=#6c8ebf;" vertex="1" parent="f1m_IaJI3R48xUZBdV02-203">
          <mxGeometry x="60" width="30" height="30" as="geometry" />
        </mxCell>
        <mxCell id="f1m_IaJI3R48xUZBdV02-141" value="" style="shape=cube;whiteSpace=wrap;html=1;boundedLbl=1;backgroundOutline=1;darkOpacity=0.05;darkOpacity2=0.1;size=10;aspect=fixed;fillColor=#dae8fc;strokeColor=#6c8ebf;" vertex="1" parent="f1m_IaJI3R48xUZBdV02-203">
          <mxGeometry x="40" width="30" height="30" as="geometry" />
        </mxCell>
        <mxCell id="f1m_IaJI3R48xUZBdV02-179" value="" style="shape=cube;whiteSpace=wrap;html=1;boundedLbl=1;backgroundOutline=1;darkOpacity=0.05;darkOpacity2=0.1;size=10;aspect=fixed;fillColor=#dae8fc;strokeColor=#6c8ebf;" vertex="1" parent="f1m_IaJI3R48xUZBdV02-203">
          <mxGeometry x="20" y="40" width="30" height="30" as="geometry" />
        </mxCell>
        <mxCell id="f1m_IaJI3R48xUZBdV02-180" value="" style="shape=cube;whiteSpace=wrap;html=1;boundedLbl=1;backgroundOutline=1;darkOpacity=0.05;darkOpacity2=0.1;size=10;aspect=fixed;fillColor=#dae8fc;strokeColor=#6c8ebf;" vertex="1" parent="f1m_IaJI3R48xUZBdV02-203">
          <mxGeometry x="20" y="20" width="30" height="30" as="geometry" />
        </mxCell>
        <mxCell id="f1m_IaJI3R48xUZBdV02-181" value="" style="shape=cube;whiteSpace=wrap;html=1;boundedLbl=1;backgroundOutline=1;darkOpacity=0.05;darkOpacity2=0.1;size=10;aspect=fixed;fillColor=#dae8fc;strokeColor=#6c8ebf;" vertex="1" parent="f1m_IaJI3R48xUZBdV02-203">
          <mxGeometry x="20" width="30" height="30" as="geometry" />
        </mxCell>
        <mxCell id="f1m_IaJI3R48xUZBdV02-197" value="" style="shape=cube;whiteSpace=wrap;html=1;boundedLbl=1;backgroundOutline=1;darkOpacity=0.05;darkOpacity2=0.1;size=10;aspect=fixed;fillColor=#dae8fc;strokeColor=#6c8ebf;" vertex="1" parent="f1m_IaJI3R48xUZBdV02-203">
          <mxGeometry y="40" width="30" height="30" as="geometry" />
        </mxCell>
        <mxCell id="f1m_IaJI3R48xUZBdV02-198" value="" style="shape=cube;whiteSpace=wrap;html=1;boundedLbl=1;backgroundOutline=1;darkOpacity=0.05;darkOpacity2=0.1;size=10;aspect=fixed;fillColor=#dae8fc;strokeColor=#6c8ebf;" vertex="1" parent="f1m_IaJI3R48xUZBdV02-203">
          <mxGeometry y="20" width="30" height="30" as="geometry" />
        </mxCell>
        <mxCell id="f1m_IaJI3R48xUZBdV02-199" value="" style="shape=cube;whiteSpace=wrap;html=1;boundedLbl=1;backgroundOutline=1;darkOpacity=0.05;darkOpacity2=0.1;size=10;aspect=fixed;fillColor=#dae8fc;strokeColor=#6c8ebf;" vertex="1" parent="f1m_IaJI3R48xUZBdV02-203">
          <mxGeometry width="30" height="30" as="geometry" />
        </mxCell>
        <mxCell id="f1m_IaJI3R48xUZBdV02-10" value="" style="curved=1;endArrow=none;html=1;rounded=0;fillColor=#f8cecc;strokeColor=#b85450;startFill=0;strokeWidth=5;" edge="1" parent="1">
          <mxGeometry width="50" height="50" relative="1" as="geometry">
            <mxPoint x="60" y="420" as="sourcePoint" />
            <mxPoint x="110" y="370" as="targetPoint" />
            <Array as="points">
              <mxPoint x="110" y="420" />
              <mxPoint x="40" y="380" />
            </Array>
          </mxGeometry>
        </mxCell>
        <mxCell id="f1m_IaJI3R48xUZBdV02-262" value="" style="group" vertex="1" connectable="0" parent="1">
          <mxGeometry x="130" y="360" width="150" height="100" as="geometry" />
        </mxCell>
        <mxCell id="f1m_IaJI3R48xUZBdV02-90" value="&lt;font style=&quot;font-size: 16px;&quot;&gt;$$(L_{2},F)$$&lt;/font&gt;" style="text;html=1;align=center;verticalAlign=middle;whiteSpace=wrap;rounded=0;" vertex="1" parent="f1m_IaJI3R48xUZBdV02-262">
          <mxGeometry x="10" y="80" width="40" height="20" as="geometry" />
        </mxCell>
        <mxCell id="f1m_IaJI3R48xUZBdV02-142" value="" style="shape=cube;whiteSpace=wrap;html=1;boundedLbl=1;backgroundOutline=1;darkOpacity=0.05;darkOpacity2=0.1;size=10;aspect=fixed;fillColor=#f8cecc;strokeColor=#b85450;" vertex="1" parent="f1m_IaJI3R48xUZBdV02-262">
          <mxGeometry x="120" y="40" width="30" height="30" as="geometry" />
        </mxCell>
        <mxCell id="f1m_IaJI3R48xUZBdV02-143" value="" style="shape=cube;whiteSpace=wrap;html=1;boundedLbl=1;backgroundOutline=1;darkOpacity=0.05;darkOpacity2=0.1;size=10;aspect=fixed;fillColor=#f8cecc;strokeColor=#b85450;" vertex="1" parent="f1m_IaJI3R48xUZBdV02-262">
          <mxGeometry x="100" y="40" width="30" height="30" as="geometry" />
        </mxCell>
        <mxCell id="f1m_IaJI3R48xUZBdV02-144" value="" style="shape=cube;whiteSpace=wrap;html=1;boundedLbl=1;backgroundOutline=1;darkOpacity=0.05;darkOpacity2=0.1;size=10;aspect=fixed;fillColor=#f8cecc;strokeColor=#b85450;" vertex="1" parent="f1m_IaJI3R48xUZBdV02-262">
          <mxGeometry x="120" y="20" width="30" height="30" as="geometry" />
        </mxCell>
        <mxCell id="f1m_IaJI3R48xUZBdV02-145" value="" style="shape=cube;whiteSpace=wrap;html=1;boundedLbl=1;backgroundOutline=1;darkOpacity=0.05;darkOpacity2=0.1;size=10;aspect=fixed;fillColor=#f8cecc;strokeColor=#b85450;" vertex="1" parent="f1m_IaJI3R48xUZBdV02-262">
          <mxGeometry x="100" y="20" width="30" height="30" as="geometry" />
        </mxCell>
        <mxCell id="f1m_IaJI3R48xUZBdV02-146" value="" style="shape=cube;whiteSpace=wrap;html=1;boundedLbl=1;backgroundOutline=1;darkOpacity=0.05;darkOpacity2=0.1;size=10;aspect=fixed;fillColor=#f8cecc;strokeColor=#b85450;" vertex="1" parent="f1m_IaJI3R48xUZBdV02-262">
          <mxGeometry x="120" width="30" height="30" as="geometry" />
        </mxCell>
        <mxCell id="f1m_IaJI3R48xUZBdV02-147" value="" style="shape=cube;whiteSpace=wrap;html=1;boundedLbl=1;backgroundOutline=1;darkOpacity=0.05;darkOpacity2=0.1;size=10;aspect=fixed;fillColor=#f8cecc;strokeColor=#b85450;" vertex="1" parent="f1m_IaJI3R48xUZBdV02-262">
          <mxGeometry x="100" width="30" height="30" as="geometry" />
        </mxCell>
        <mxCell id="f1m_IaJI3R48xUZBdV02-148" value="" style="shape=cube;whiteSpace=wrap;html=1;boundedLbl=1;backgroundOutline=1;darkOpacity=0.05;darkOpacity2=0.1;size=10;aspect=fixed;fillColor=#f8cecc;strokeColor=#b85450;" vertex="1" parent="f1m_IaJI3R48xUZBdV02-262">
          <mxGeometry x="80" y="40" width="30" height="30" as="geometry" />
        </mxCell>
        <mxCell id="f1m_IaJI3R48xUZBdV02-149" value="" style="shape=cube;whiteSpace=wrap;html=1;boundedLbl=1;backgroundOutline=1;darkOpacity=0.05;darkOpacity2=0.1;size=10;aspect=fixed;fillColor=#f8cecc;strokeColor=#b85450;" vertex="1" parent="f1m_IaJI3R48xUZBdV02-262">
          <mxGeometry x="60" y="40" width="30" height="30" as="geometry" />
        </mxCell>
        <mxCell id="f1m_IaJI3R48xUZBdV02-150" value="" style="shape=cube;whiteSpace=wrap;html=1;boundedLbl=1;backgroundOutline=1;darkOpacity=0.05;darkOpacity2=0.1;size=10;aspect=fixed;fillColor=#f8cecc;strokeColor=#b85450;" vertex="1" parent="f1m_IaJI3R48xUZBdV02-262">
          <mxGeometry x="80" y="20" width="30" height="30" as="geometry" />
        </mxCell>
        <mxCell id="f1m_IaJI3R48xUZBdV02-151" value="" style="shape=cube;whiteSpace=wrap;html=1;boundedLbl=1;backgroundOutline=1;darkOpacity=0.05;darkOpacity2=0.1;size=10;aspect=fixed;fillColor=#f8cecc;strokeColor=#b85450;" vertex="1" parent="f1m_IaJI3R48xUZBdV02-262">
          <mxGeometry x="60" y="20" width="30" height="30" as="geometry" />
        </mxCell>
        <mxCell id="f1m_IaJI3R48xUZBdV02-152" value="" style="shape=cube;whiteSpace=wrap;html=1;boundedLbl=1;backgroundOutline=1;darkOpacity=0.05;darkOpacity2=0.1;size=10;aspect=fixed;fillColor=#f8cecc;strokeColor=#b85450;" vertex="1" parent="f1m_IaJI3R48xUZBdV02-262">
          <mxGeometry x="80" width="30" height="30" as="geometry" />
        </mxCell>
        <mxCell id="f1m_IaJI3R48xUZBdV02-153" value="" style="shape=cube;whiteSpace=wrap;html=1;boundedLbl=1;backgroundOutline=1;darkOpacity=0.05;darkOpacity2=0.1;size=10;aspect=fixed;fillColor=#f8cecc;strokeColor=#b85450;" vertex="1" parent="f1m_IaJI3R48xUZBdV02-262">
          <mxGeometry x="60" width="30" height="30" as="geometry" />
        </mxCell>
        <mxCell id="f1m_IaJI3R48xUZBdV02-154" value="" style="shape=cube;whiteSpace=wrap;html=1;boundedLbl=1;backgroundOutline=1;darkOpacity=0.05;darkOpacity2=0.1;size=10;aspect=fixed;fillColor=#f8cecc;strokeColor=#b85450;" vertex="1" parent="f1m_IaJI3R48xUZBdV02-262">
          <mxGeometry x="40" y="40" width="30" height="30" as="geometry" />
        </mxCell>
        <mxCell id="f1m_IaJI3R48xUZBdV02-155" value="" style="shape=cube;whiteSpace=wrap;html=1;boundedLbl=1;backgroundOutline=1;darkOpacity=0.05;darkOpacity2=0.1;size=10;aspect=fixed;fillColor=#f8cecc;strokeColor=#b85450;" vertex="1" parent="f1m_IaJI3R48xUZBdV02-262">
          <mxGeometry x="40" y="20" width="30" height="30" as="geometry" />
        </mxCell>
        <mxCell id="f1m_IaJI3R48xUZBdV02-156" value="" style="shape=cube;whiteSpace=wrap;html=1;boundedLbl=1;backgroundOutline=1;darkOpacity=0.05;darkOpacity2=0.1;size=10;aspect=fixed;fillColor=#f8cecc;strokeColor=#b85450;" vertex="1" parent="f1m_IaJI3R48xUZBdV02-262">
          <mxGeometry x="40" width="30" height="30" as="geometry" />
        </mxCell>
        <mxCell id="f1m_IaJI3R48xUZBdV02-173" value="" style="shape=cube;whiteSpace=wrap;html=1;boundedLbl=1;backgroundOutline=1;darkOpacity=0.05;darkOpacity2=0.1;size=10;aspect=fixed;fillColor=#f8cecc;strokeColor=#b85450;" vertex="1" parent="f1m_IaJI3R48xUZBdV02-262">
          <mxGeometry x="20" y="40" width="30" height="30" as="geometry" />
        </mxCell>
        <mxCell id="f1m_IaJI3R48xUZBdV02-174" value="" style="shape=cube;whiteSpace=wrap;html=1;boundedLbl=1;backgroundOutline=1;darkOpacity=0.05;darkOpacity2=0.1;size=10;aspect=fixed;fillColor=#f8cecc;strokeColor=#b85450;" vertex="1" parent="f1m_IaJI3R48xUZBdV02-262">
          <mxGeometry x="20" y="20" width="30" height="30" as="geometry" />
        </mxCell>
        <mxCell id="f1m_IaJI3R48xUZBdV02-175" value="" style="shape=cube;whiteSpace=wrap;html=1;boundedLbl=1;backgroundOutline=1;darkOpacity=0.05;darkOpacity2=0.1;size=10;aspect=fixed;fillColor=#f8cecc;strokeColor=#b85450;" vertex="1" parent="f1m_IaJI3R48xUZBdV02-262">
          <mxGeometry x="20" width="30" height="30" as="geometry" />
        </mxCell>
        <mxCell id="f1m_IaJI3R48xUZBdV02-176" value="" style="shape=cube;whiteSpace=wrap;html=1;boundedLbl=1;backgroundOutline=1;darkOpacity=0.05;darkOpacity2=0.1;size=10;aspect=fixed;fillColor=#f8cecc;strokeColor=#b85450;" vertex="1" parent="f1m_IaJI3R48xUZBdV02-262">
          <mxGeometry y="40" width="30" height="30" as="geometry" />
        </mxCell>
        <mxCell id="f1m_IaJI3R48xUZBdV02-177" value="" style="shape=cube;whiteSpace=wrap;html=1;boundedLbl=1;backgroundOutline=1;darkOpacity=0.05;darkOpacity2=0.1;size=10;aspect=fixed;fillColor=#f8cecc;strokeColor=#b85450;" vertex="1" parent="f1m_IaJI3R48xUZBdV02-262">
          <mxGeometry y="20" width="30" height="30" as="geometry" />
        </mxCell>
        <mxCell id="f1m_IaJI3R48xUZBdV02-178" value="" style="shape=cube;whiteSpace=wrap;html=1;boundedLbl=1;backgroundOutline=1;darkOpacity=0.05;darkOpacity2=0.1;size=10;aspect=fixed;fillColor=#f8cecc;strokeColor=#b85450;" vertex="1" parent="f1m_IaJI3R48xUZBdV02-262">
          <mxGeometry width="30" height="30" as="geometry" />
        </mxCell>
        <mxCell id="f1m_IaJI3R48xUZBdV02-21" value="" style="curved=1;endArrow=none;html=1;rounded=0;fillColor=#d5e8d4;strokeColor=#82b366;startFill=0;strokeWidth=5;" edge="1" parent="1">
          <mxGeometry width="50" height="50" relative="1" as="geometry">
            <mxPoint x="60" y="520" as="sourcePoint" />
            <mxPoint x="110" y="490" as="targetPoint" />
            <Array as="points">
              <mxPoint x="90" y="520" />
              <mxPoint x="90" y="510" />
              <mxPoint x="70" y="500" />
            </Array>
          </mxGeometry>
        </mxCell>
        <mxCell id="f1m_IaJI3R48xUZBdV02-91" value="&lt;font style=&quot;font-size: 16px;&quot;&gt;$$(L_{3},F)$$&lt;/font&gt;" style="text;html=1;align=center;verticalAlign=middle;whiteSpace=wrap;rounded=0;" vertex="1" parent="1">
          <mxGeometry x="140" y="550" width="40" height="20" as="geometry" />
        </mxCell>
        <mxCell id="f1m_IaJI3R48xUZBdV02-182" value="" style="shape=cube;whiteSpace=wrap;html=1;boundedLbl=1;backgroundOutline=1;darkOpacity=0.05;darkOpacity2=0.1;size=10;aspect=fixed;fillColor=#d5e8d4;strokeColor=#82b366;" vertex="1" parent="1">
          <mxGeometry x="210" y="510" width="30" height="30" as="geometry" />
        </mxCell>
        <mxCell id="f1m_IaJI3R48xUZBdV02-183" value="" style="shape=cube;whiteSpace=wrap;html=1;boundedLbl=1;backgroundOutline=1;darkOpacity=0.05;darkOpacity2=0.1;size=10;aspect=fixed;fillColor=#d5e8d4;strokeColor=#82b366;" vertex="1" parent="1">
          <mxGeometry x="190" y="510" width="30" height="30" as="geometry" />
        </mxCell>
        <mxCell id="f1m_IaJI3R48xUZBdV02-184" value="" style="shape=cube;whiteSpace=wrap;html=1;boundedLbl=1;backgroundOutline=1;darkOpacity=0.05;darkOpacity2=0.1;size=10;aspect=fixed;fillColor=#d5e8d4;strokeColor=#82b366;" vertex="1" parent="1">
          <mxGeometry x="210" y="490" width="30" height="30" as="geometry" />
        </mxCell>
        <mxCell id="f1m_IaJI3R48xUZBdV02-185" value="" style="shape=cube;whiteSpace=wrap;html=1;boundedLbl=1;backgroundOutline=1;darkOpacity=0.05;darkOpacity2=0.1;size=10;aspect=fixed;fillColor=#d5e8d4;strokeColor=#82b366;" vertex="1" parent="1">
          <mxGeometry x="190" y="490" width="30" height="30" as="geometry" />
        </mxCell>
        <mxCell id="f1m_IaJI3R48xUZBdV02-186" value="" style="shape=cube;whiteSpace=wrap;html=1;boundedLbl=1;backgroundOutline=1;darkOpacity=0.05;darkOpacity2=0.1;size=10;aspect=fixed;fillColor=#d5e8d4;strokeColor=#82b366;" vertex="1" parent="1">
          <mxGeometry x="210" y="470" width="30" height="30" as="geometry" />
        </mxCell>
        <mxCell id="f1m_IaJI3R48xUZBdV02-187" value="" style="shape=cube;whiteSpace=wrap;html=1;boundedLbl=1;backgroundOutline=1;darkOpacity=0.05;darkOpacity2=0.1;size=10;aspect=fixed;fillColor=#d5e8d4;strokeColor=#82b366;" vertex="1" parent="1">
          <mxGeometry x="190" y="470" width="30" height="30" as="geometry" />
        </mxCell>
        <mxCell id="f1m_IaJI3R48xUZBdV02-188" value="" style="shape=cube;whiteSpace=wrap;html=1;boundedLbl=1;backgroundOutline=1;darkOpacity=0.05;darkOpacity2=0.1;size=10;aspect=fixed;fillColor=#d5e8d4;strokeColor=#82b366;" vertex="1" parent="1">
          <mxGeometry x="170" y="510" width="30" height="30" as="geometry" />
        </mxCell>
        <mxCell id="f1m_IaJI3R48xUZBdV02-189" value="" style="shape=cube;whiteSpace=wrap;html=1;boundedLbl=1;backgroundOutline=1;darkOpacity=0.05;darkOpacity2=0.1;size=10;aspect=fixed;fillColor=#d5e8d4;strokeColor=#82b366;" vertex="1" parent="1">
          <mxGeometry x="150" y="510" width="30" height="30" as="geometry" />
        </mxCell>
        <mxCell id="f1m_IaJI3R48xUZBdV02-190" value="" style="shape=cube;whiteSpace=wrap;html=1;boundedLbl=1;backgroundOutline=1;darkOpacity=0.05;darkOpacity2=0.1;size=10;aspect=fixed;fillColor=#d5e8d4;strokeColor=#82b366;" vertex="1" parent="1">
          <mxGeometry x="170" y="490" width="30" height="30" as="geometry" />
        </mxCell>
        <mxCell id="f1m_IaJI3R48xUZBdV02-191" value="" style="shape=cube;whiteSpace=wrap;html=1;boundedLbl=1;backgroundOutline=1;darkOpacity=0.05;darkOpacity2=0.1;size=10;aspect=fixed;fillColor=#d5e8d4;strokeColor=#82b366;" vertex="1" parent="1">
          <mxGeometry x="150" y="490" width="30" height="30" as="geometry" />
        </mxCell>
        <mxCell id="f1m_IaJI3R48xUZBdV02-192" value="" style="shape=cube;whiteSpace=wrap;html=1;boundedLbl=1;backgroundOutline=1;darkOpacity=0.05;darkOpacity2=0.1;size=10;aspect=fixed;fillColor=#d5e8d4;strokeColor=#82b366;" vertex="1" parent="1">
          <mxGeometry x="170" y="470" width="30" height="30" as="geometry" />
        </mxCell>
        <mxCell id="f1m_IaJI3R48xUZBdV02-193" value="" style="shape=cube;whiteSpace=wrap;html=1;boundedLbl=1;backgroundOutline=1;darkOpacity=0.05;darkOpacity2=0.1;size=10;aspect=fixed;fillColor=#d5e8d4;strokeColor=#82b366;" vertex="1" parent="1">
          <mxGeometry x="150" y="470" width="30" height="30" as="geometry" />
        </mxCell>
        <mxCell id="f1m_IaJI3R48xUZBdV02-194" value="" style="shape=cube;whiteSpace=wrap;html=1;boundedLbl=1;backgroundOutline=1;darkOpacity=0.05;darkOpacity2=0.1;size=10;aspect=fixed;fillColor=#d5e8d4;strokeColor=#82b366;" vertex="1" parent="1">
          <mxGeometry x="130" y="510" width="30" height="30" as="geometry" />
        </mxCell>
        <mxCell id="f1m_IaJI3R48xUZBdV02-195" value="" style="shape=cube;whiteSpace=wrap;html=1;boundedLbl=1;backgroundOutline=1;darkOpacity=0.05;darkOpacity2=0.1;size=10;aspect=fixed;fillColor=#d5e8d4;strokeColor=#82b366;" vertex="1" parent="1">
          <mxGeometry x="130" y="490" width="30" height="30" as="geometry" />
        </mxCell>
        <mxCell id="f1m_IaJI3R48xUZBdV02-196" value="" style="shape=cube;whiteSpace=wrap;html=1;boundedLbl=1;backgroundOutline=1;darkOpacity=0.05;darkOpacity2=0.1;size=10;aspect=fixed;fillColor=#d5e8d4;strokeColor=#82b366;" vertex="1" parent="1">
          <mxGeometry x="130" y="470" width="30" height="30" as="geometry" />
        </mxCell>
        <mxCell id="f1m_IaJI3R48xUZBdV02-342" value="&lt;font style=&quot;font-size: 16px;&quot;&gt;$$(B,L,F)$$&lt;/font&gt;" style="text;html=1;align=center;verticalAlign=middle;whiteSpace=wrap;rounded=0;" vertex="1" parent="1">
          <mxGeometry x="440" y="450" width="40" height="20" as="geometry" />
        </mxCell>
        <mxCell id="f1m_IaJI3R48xUZBdV02-345" value="" style="group" vertex="1" connectable="0" parent="1">
          <mxGeometry x="400" y="350" width="150" height="70" as="geometry" />
        </mxCell>
        <mxCell id="f1m_IaJI3R48xUZBdV02-257" value="" style="shape=cube;whiteSpace=wrap;html=1;boundedLbl=1;backgroundOutline=1;darkOpacity=0.05;darkOpacity2=0.1;size=10;aspect=fixed;fillColor=#999999;strokeColor=#666666;fontColor=#333333;" vertex="1" parent="f1m_IaJI3R48xUZBdV02-345">
          <mxGeometry x="120" width="30" height="30" as="geometry" />
        </mxCell>
        <mxCell id="f1m_IaJI3R48xUZBdV02-341" value="" style="shape=cube;whiteSpace=wrap;html=1;boundedLbl=1;backgroundOutline=1;darkOpacity=0.05;darkOpacity2=0.1;size=10;aspect=fixed;fillColor=#999999;strokeColor=#666666;fontColor=#333333;" vertex="1" parent="f1m_IaJI3R48xUZBdV02-345">
          <mxGeometry x="100" width="30" height="30" as="geometry" />
        </mxCell>
        <mxCell id="f1m_IaJI3R48xUZBdV02-328" value="" style="shape=cube;whiteSpace=wrap;html=1;boundedLbl=1;backgroundOutline=1;darkOpacity=0.05;darkOpacity2=0.1;size=10;aspect=fixed;fillColor=#d5e8d4;strokeColor=#82b366;" vertex="1" parent="f1m_IaJI3R48xUZBdV02-345">
          <mxGeometry x="80" width="30" height="30" as="geometry" />
        </mxCell>
        <mxCell id="f1m_IaJI3R48xUZBdV02-329" value="" style="shape=cube;whiteSpace=wrap;html=1;boundedLbl=1;backgroundOutline=1;darkOpacity=0.05;darkOpacity2=0.1;size=10;aspect=fixed;fillColor=#d5e8d4;strokeColor=#82b366;" vertex="1" parent="f1m_IaJI3R48xUZBdV02-345">
          <mxGeometry x="60" width="30" height="30" as="geometry" />
        </mxCell>
        <mxCell id="f1m_IaJI3R48xUZBdV02-334" value="" style="shape=cube;whiteSpace=wrap;html=1;boundedLbl=1;backgroundOutline=1;darkOpacity=0.05;darkOpacity2=0.1;size=10;aspect=fixed;fillColor=#d5e8d4;strokeColor=#82b366;" vertex="1" parent="f1m_IaJI3R48xUZBdV02-345">
          <mxGeometry x="40" width="30" height="30" as="geometry" />
        </mxCell>
        <mxCell id="f1m_IaJI3R48xUZBdV02-335" value="" style="shape=cube;whiteSpace=wrap;html=1;boundedLbl=1;backgroundOutline=1;darkOpacity=0.05;darkOpacity2=0.1;size=10;aspect=fixed;fillColor=#d5e8d4;strokeColor=#82b366;" vertex="1" parent="f1m_IaJI3R48xUZBdV02-345">
          <mxGeometry x="20" width="30" height="30" as="geometry" />
        </mxCell>
        <mxCell id="f1m_IaJI3R48xUZBdV02-336" value="" style="shape=cube;whiteSpace=wrap;html=1;boundedLbl=1;backgroundOutline=1;darkOpacity=0.05;darkOpacity2=0.1;size=10;aspect=fixed;fillColor=#d5e8d4;strokeColor=#82b366;" vertex="1" parent="f1m_IaJI3R48xUZBdV02-345">
          <mxGeometry y="40" width="30" height="30" as="geometry" />
        </mxCell>
        <mxCell id="f1m_IaJI3R48xUZBdV02-337" value="" style="shape=cube;whiteSpace=wrap;html=1;boundedLbl=1;backgroundOutline=1;darkOpacity=0.05;darkOpacity2=0.1;size=10;aspect=fixed;fillColor=#d5e8d4;strokeColor=#82b366;" vertex="1" parent="f1m_IaJI3R48xUZBdV02-345">
          <mxGeometry y="20" width="30" height="30" as="geometry" />
        </mxCell>
        <mxCell id="f1m_IaJI3R48xUZBdV02-338" value="" style="shape=cube;whiteSpace=wrap;html=1;boundedLbl=1;backgroundOutline=1;darkOpacity=0.05;darkOpacity2=0.1;size=10;aspect=fixed;fillColor=#d5e8d4;strokeColor=#82b366;" vertex="1" parent="f1m_IaJI3R48xUZBdV02-345">
          <mxGeometry width="30" height="30" as="geometry" />
        </mxCell>
        <mxCell id="f1m_IaJI3R48xUZBdV02-343" value="" style="group" vertex="1" connectable="0" parent="1">
          <mxGeometry x="411" y="361" width="150" height="70" as="geometry" />
        </mxCell>
        <mxCell id="f1m_IaJI3R48xUZBdV02-307" value="" style="shape=cube;whiteSpace=wrap;html=1;boundedLbl=1;backgroundOutline=1;darkOpacity=0.05;darkOpacity2=0.1;size=10;aspect=fixed;fillColor=#f8cecc;strokeColor=#b85450;" vertex="1" parent="f1m_IaJI3R48xUZBdV02-343">
          <mxGeometry x="120" width="30" height="30" as="geometry" />
        </mxCell>
        <mxCell id="f1m_IaJI3R48xUZBdV02-308" value="" style="shape=cube;whiteSpace=wrap;html=1;boundedLbl=1;backgroundOutline=1;darkOpacity=0.05;darkOpacity2=0.1;size=10;aspect=fixed;fillColor=#f8cecc;strokeColor=#b85450;" vertex="1" parent="f1m_IaJI3R48xUZBdV02-343">
          <mxGeometry x="100" width="30" height="30" as="geometry" />
        </mxCell>
        <mxCell id="f1m_IaJI3R48xUZBdV02-313" value="" style="shape=cube;whiteSpace=wrap;html=1;boundedLbl=1;backgroundOutline=1;darkOpacity=0.05;darkOpacity2=0.1;size=10;aspect=fixed;fillColor=#f8cecc;strokeColor=#b85450;" vertex="1" parent="f1m_IaJI3R48xUZBdV02-343">
          <mxGeometry x="80" width="30" height="30" as="geometry" />
        </mxCell>
        <mxCell id="f1m_IaJI3R48xUZBdV02-314" value="" style="shape=cube;whiteSpace=wrap;html=1;boundedLbl=1;backgroundOutline=1;darkOpacity=0.05;darkOpacity2=0.1;size=10;aspect=fixed;fillColor=#f8cecc;strokeColor=#b85450;" vertex="1" parent="f1m_IaJI3R48xUZBdV02-343">
          <mxGeometry x="60" width="30" height="30" as="geometry" />
        </mxCell>
        <mxCell id="f1m_IaJI3R48xUZBdV02-317" value="" style="shape=cube;whiteSpace=wrap;html=1;boundedLbl=1;backgroundOutline=1;darkOpacity=0.05;darkOpacity2=0.1;size=10;aspect=fixed;fillColor=#f8cecc;strokeColor=#b85450;" vertex="1" parent="f1m_IaJI3R48xUZBdV02-343">
          <mxGeometry x="40" width="30" height="30" as="geometry" />
        </mxCell>
        <mxCell id="f1m_IaJI3R48xUZBdV02-320" value="" style="shape=cube;whiteSpace=wrap;html=1;boundedLbl=1;backgroundOutline=1;darkOpacity=0.05;darkOpacity2=0.1;size=10;aspect=fixed;fillColor=#f8cecc;strokeColor=#b85450;" vertex="1" parent="f1m_IaJI3R48xUZBdV02-343">
          <mxGeometry x="20" width="30" height="30" as="geometry" />
        </mxCell>
        <mxCell id="f1m_IaJI3R48xUZBdV02-321" value="" style="shape=cube;whiteSpace=wrap;html=1;boundedLbl=1;backgroundOutline=1;darkOpacity=0.05;darkOpacity2=0.1;size=10;aspect=fixed;fillColor=#f8cecc;strokeColor=#b85450;" vertex="1" parent="f1m_IaJI3R48xUZBdV02-343">
          <mxGeometry y="40" width="30" height="30" as="geometry" />
        </mxCell>
        <mxCell id="f1m_IaJI3R48xUZBdV02-322" value="" style="shape=cube;whiteSpace=wrap;html=1;boundedLbl=1;backgroundOutline=1;darkOpacity=0.05;darkOpacity2=0.1;size=10;aspect=fixed;fillColor=#f8cecc;strokeColor=#b85450;" vertex="1" parent="f1m_IaJI3R48xUZBdV02-343">
          <mxGeometry y="20" width="30" height="30" as="geometry" />
        </mxCell>
        <mxCell id="f1m_IaJI3R48xUZBdV02-323" value="" style="shape=cube;whiteSpace=wrap;html=1;boundedLbl=1;backgroundOutline=1;darkOpacity=0.05;darkOpacity2=0.1;size=10;aspect=fixed;fillColor=#f8cecc;strokeColor=#b85450;" vertex="1" parent="f1m_IaJI3R48xUZBdV02-343">
          <mxGeometry width="30" height="30" as="geometry" />
        </mxCell>
        <mxCell id="f1m_IaJI3R48xUZBdV02-344" value="" style="group" vertex="1" connectable="0" parent="1">
          <mxGeometry x="422" y="372" width="150" height="70" as="geometry" />
        </mxCell>
        <mxCell id="f1m_IaJI3R48xUZBdV02-255" value="" style="shape=cube;whiteSpace=wrap;html=1;boundedLbl=1;backgroundOutline=1;darkOpacity=0.05;darkOpacity2=0.1;size=10;aspect=fixed;fillColor=#999999;strokeColor=#666666;fontColor=#333333;" vertex="1" parent="f1m_IaJI3R48xUZBdV02-344">
          <mxGeometry x="100" y="20" width="30" height="30" as="geometry" />
        </mxCell>
        <mxCell id="f1m_IaJI3R48xUZBdV02-256" value="" style="shape=cube;whiteSpace=wrap;html=1;boundedLbl=1;backgroundOutline=1;darkOpacity=0.05;darkOpacity2=0.1;size=10;aspect=fixed;fillColor=#999999;strokeColor=#666666;fontColor=#333333;" vertex="1" parent="f1m_IaJI3R48xUZBdV02-344">
          <mxGeometry x="100" width="30" height="30" as="geometry" />
        </mxCell>
        <mxCell id="f1m_IaJI3R48xUZBdV02-339" value="" style="shape=cube;whiteSpace=wrap;html=1;boundedLbl=1;backgroundOutline=1;darkOpacity=0.05;darkOpacity2=0.1;size=10;aspect=fixed;fillColor=#999999;strokeColor=#666666;fontColor=#333333;" vertex="1" parent="f1m_IaJI3R48xUZBdV02-344">
          <mxGeometry x="80" y="20" width="30" height="30" as="geometry" />
        </mxCell>
        <mxCell id="f1m_IaJI3R48xUZBdV02-340" value="" style="shape=cube;whiteSpace=wrap;html=1;boundedLbl=1;backgroundOutline=1;darkOpacity=0.05;darkOpacity2=0.1;size=10;aspect=fixed;fillColor=#999999;strokeColor=#666666;fontColor=#333333;" vertex="1" parent="f1m_IaJI3R48xUZBdV02-344">
          <mxGeometry x="80" width="30" height="30" as="geometry" />
        </mxCell>
        <mxCell id="f1m_IaJI3R48xUZBdV02-324" value="" style="shape=cube;whiteSpace=wrap;html=1;boundedLbl=1;backgroundOutline=1;darkOpacity=0.05;darkOpacity2=0.1;size=10;aspect=fixed;fillColor=#d5e8d4;strokeColor=#82b366;" vertex="1" parent="f1m_IaJI3R48xUZBdV02-344">
          <mxGeometry x="60" y="20" width="30" height="30" as="geometry" />
        </mxCell>
        <mxCell id="f1m_IaJI3R48xUZBdV02-325" value="" style="shape=cube;whiteSpace=wrap;html=1;boundedLbl=1;backgroundOutline=1;darkOpacity=0.05;darkOpacity2=0.1;size=10;aspect=fixed;fillColor=#d5e8d4;strokeColor=#82b366;" vertex="1" parent="f1m_IaJI3R48xUZBdV02-344">
          <mxGeometry x="40" y="20" width="30" height="30" as="geometry" />
        </mxCell>
        <mxCell id="f1m_IaJI3R48xUZBdV02-326" value="" style="shape=cube;whiteSpace=wrap;html=1;boundedLbl=1;backgroundOutline=1;darkOpacity=0.05;darkOpacity2=0.1;size=10;aspect=fixed;fillColor=#d5e8d4;strokeColor=#82b366;" vertex="1" parent="f1m_IaJI3R48xUZBdV02-344">
          <mxGeometry x="60" width="30" height="30" as="geometry" />
        </mxCell>
        <mxCell id="f1m_IaJI3R48xUZBdV02-327" value="" style="shape=cube;whiteSpace=wrap;html=1;boundedLbl=1;backgroundOutline=1;darkOpacity=0.05;darkOpacity2=0.1;size=10;aspect=fixed;fillColor=#d5e8d4;strokeColor=#82b366;" vertex="1" parent="f1m_IaJI3R48xUZBdV02-344">
          <mxGeometry x="40" width="30" height="30" as="geometry" />
        </mxCell>
        <mxCell id="f1m_IaJI3R48xUZBdV02-330" value="" style="shape=cube;whiteSpace=wrap;html=1;boundedLbl=1;backgroundOutline=1;darkOpacity=0.05;darkOpacity2=0.1;size=10;aspect=fixed;fillColor=#d5e8d4;strokeColor=#82b366;" vertex="1" parent="f1m_IaJI3R48xUZBdV02-344">
          <mxGeometry x="20" y="20" width="30" height="30" as="geometry" />
        </mxCell>
        <mxCell id="f1m_IaJI3R48xUZBdV02-331" value="" style="shape=cube;whiteSpace=wrap;html=1;boundedLbl=1;backgroundOutline=1;darkOpacity=0.05;darkOpacity2=0.1;size=10;aspect=fixed;fillColor=#d5e8d4;strokeColor=#82b366;" vertex="1" parent="f1m_IaJI3R48xUZBdV02-344">
          <mxGeometry y="20" width="30" height="30" as="geometry" />
        </mxCell>
        <mxCell id="f1m_IaJI3R48xUZBdV02-332" value="" style="shape=cube;whiteSpace=wrap;html=1;boundedLbl=1;backgroundOutline=1;darkOpacity=0.05;darkOpacity2=0.1;size=10;aspect=fixed;fillColor=#d5e8d4;strokeColor=#82b366;" vertex="1" parent="f1m_IaJI3R48xUZBdV02-344">
          <mxGeometry x="20" width="30" height="30" as="geometry" />
        </mxCell>
        <mxCell id="f1m_IaJI3R48xUZBdV02-333" value="" style="shape=cube;whiteSpace=wrap;html=1;boundedLbl=1;backgroundOutline=1;darkOpacity=0.05;darkOpacity2=0.1;size=10;aspect=fixed;fillColor=#d5e8d4;strokeColor=#82b366;" vertex="1" parent="f1m_IaJI3R48xUZBdV02-344">
          <mxGeometry width="30" height="30" as="geometry" />
        </mxCell>
        <mxCell id="f1m_IaJI3R48xUZBdV02-303" value="" style="shape=cube;whiteSpace=wrap;html=1;boundedLbl=1;backgroundOutline=1;darkOpacity=0.05;darkOpacity2=0.1;size=10;aspect=fixed;fillColor=#f8cecc;strokeColor=#b85450;" vertex="1" parent="f1m_IaJI3R48xUZBdV02-344">
          <mxGeometry x="110" y="30" width="30" height="30" as="geometry" />
        </mxCell>
        <mxCell id="f1m_IaJI3R48xUZBdV02-305" value="" style="shape=cube;whiteSpace=wrap;html=1;boundedLbl=1;backgroundOutline=1;darkOpacity=0.05;darkOpacity2=0.1;size=10;aspect=fixed;fillColor=#f8cecc;strokeColor=#b85450;" vertex="1" parent="f1m_IaJI3R48xUZBdV02-344">
          <mxGeometry x="110" y="10" width="30" height="30" as="geometry" />
        </mxCell>
        <mxCell id="f1m_IaJI3R48xUZBdV02-258" value="" style="shape=cube;whiteSpace=wrap;html=1;boundedLbl=1;backgroundOutline=1;darkOpacity=0.05;darkOpacity2=0.1;size=10;aspect=fixed;fillColor=#999999;strokeColor=#666666;fontColor=#333333;" vertex="1" parent="f1m_IaJI3R48xUZBdV02-344">
          <mxGeometry x="120" y="40" width="30" height="30" as="geometry" />
        </mxCell>
        <mxCell id="f1m_IaJI3R48xUZBdV02-259" value="" style="shape=cube;whiteSpace=wrap;html=1;boundedLbl=1;backgroundOutline=1;darkOpacity=0.05;darkOpacity2=0.1;size=10;aspect=fixed;fillColor=#999999;strokeColor=#666666;fontColor=#333333;" vertex="1" parent="f1m_IaJI3R48xUZBdV02-344">
          <mxGeometry x="120" y="20" width="30" height="30" as="geometry" />
        </mxCell>
        <mxCell id="f1m_IaJI3R48xUZBdV02-260" value="" style="shape=cube;whiteSpace=wrap;html=1;boundedLbl=1;backgroundOutline=1;darkOpacity=0.05;darkOpacity2=0.1;size=10;aspect=fixed;fillColor=#999999;strokeColor=#666666;fontColor=#333333;" vertex="1" parent="f1m_IaJI3R48xUZBdV02-344">
          <mxGeometry x="120" width="30" height="30" as="geometry" />
        </mxCell>
        <mxCell id="f1m_IaJI3R48xUZBdV02-304" value="" style="shape=cube;whiteSpace=wrap;html=1;boundedLbl=1;backgroundOutline=1;darkOpacity=0.05;darkOpacity2=0.1;size=10;aspect=fixed;fillColor=#f8cecc;strokeColor=#b85450;" vertex="1" parent="f1m_IaJI3R48xUZBdV02-344">
          <mxGeometry x="90" y="30" width="30" height="30" as="geometry" />
        </mxCell>
        <mxCell id="f1m_IaJI3R48xUZBdV02-306" value="" style="shape=cube;whiteSpace=wrap;html=1;boundedLbl=1;backgroundOutline=1;darkOpacity=0.05;darkOpacity2=0.1;size=10;aspect=fixed;fillColor=#f8cecc;strokeColor=#b85450;" vertex="1" parent="f1m_IaJI3R48xUZBdV02-344">
          <mxGeometry x="90" y="10" width="30" height="30" as="geometry" />
        </mxCell>
        <mxCell id="f1m_IaJI3R48xUZBdV02-309" value="" style="shape=cube;whiteSpace=wrap;html=1;boundedLbl=1;backgroundOutline=1;darkOpacity=0.05;darkOpacity2=0.1;size=10;aspect=fixed;fillColor=#f8cecc;strokeColor=#b85450;" vertex="1" parent="f1m_IaJI3R48xUZBdV02-344">
          <mxGeometry x="70" y="30" width="30" height="30" as="geometry" />
        </mxCell>
        <mxCell id="f1m_IaJI3R48xUZBdV02-310" value="" style="shape=cube;whiteSpace=wrap;html=1;boundedLbl=1;backgroundOutline=1;darkOpacity=0.05;darkOpacity2=0.1;size=10;aspect=fixed;fillColor=#f8cecc;strokeColor=#b85450;" vertex="1" parent="f1m_IaJI3R48xUZBdV02-344">
          <mxGeometry x="50" y="30" width="30" height="30" as="geometry" />
        </mxCell>
        <mxCell id="f1m_IaJI3R48xUZBdV02-311" value="" style="shape=cube;whiteSpace=wrap;html=1;boundedLbl=1;backgroundOutline=1;darkOpacity=0.05;darkOpacity2=0.1;size=10;aspect=fixed;fillColor=#f8cecc;strokeColor=#b85450;" vertex="1" parent="f1m_IaJI3R48xUZBdV02-344">
          <mxGeometry x="70" y="10" width="30" height="30" as="geometry" />
        </mxCell>
        <mxCell id="f1m_IaJI3R48xUZBdV02-312" value="" style="shape=cube;whiteSpace=wrap;html=1;boundedLbl=1;backgroundOutline=1;darkOpacity=0.05;darkOpacity2=0.1;size=10;aspect=fixed;fillColor=#f8cecc;strokeColor=#b85450;" vertex="1" parent="f1m_IaJI3R48xUZBdV02-344">
          <mxGeometry x="50" y="10" width="30" height="30" as="geometry" />
        </mxCell>
        <mxCell id="f1m_IaJI3R48xUZBdV02-315" value="" style="shape=cube;whiteSpace=wrap;html=1;boundedLbl=1;backgroundOutline=1;darkOpacity=0.05;darkOpacity2=0.1;size=10;aspect=fixed;fillColor=#f8cecc;strokeColor=#b85450;" vertex="1" parent="f1m_IaJI3R48xUZBdV02-344">
          <mxGeometry x="30" y="30" width="30" height="30" as="geometry" />
        </mxCell>
        <mxCell id="f1m_IaJI3R48xUZBdV02-316" value="" style="shape=cube;whiteSpace=wrap;html=1;boundedLbl=1;backgroundOutline=1;darkOpacity=0.05;darkOpacity2=0.1;size=10;aspect=fixed;fillColor=#f8cecc;strokeColor=#b85450;" vertex="1" parent="f1m_IaJI3R48xUZBdV02-344">
          <mxGeometry x="30" y="10" width="30" height="30" as="geometry" />
        </mxCell>
        <mxCell id="f1m_IaJI3R48xUZBdV02-318" value="" style="shape=cube;whiteSpace=wrap;html=1;boundedLbl=1;backgroundOutline=1;darkOpacity=0.05;darkOpacity2=0.1;size=10;aspect=fixed;fillColor=#f8cecc;strokeColor=#b85450;" vertex="1" parent="f1m_IaJI3R48xUZBdV02-344">
          <mxGeometry x="10" y="30" width="30" height="30" as="geometry" />
        </mxCell>
        <mxCell id="f1m_IaJI3R48xUZBdV02-319" value="" style="shape=cube;whiteSpace=wrap;html=1;boundedLbl=1;backgroundOutline=1;darkOpacity=0.05;darkOpacity2=0.1;size=10;aspect=fixed;fillColor=#f8cecc;strokeColor=#b85450;" vertex="1" parent="f1m_IaJI3R48xUZBdV02-344">
          <mxGeometry x="10" y="10" width="30" height="30" as="geometry" />
        </mxCell>
        <mxCell id="f1m_IaJI3R48xUZBdV02-264" value="" style="shape=cube;whiteSpace=wrap;html=1;boundedLbl=1;backgroundOutline=1;darkOpacity=0.05;darkOpacity2=0.1;size=10;aspect=fixed;fillColor=#dae8fc;strokeColor=#6c8ebf;" vertex="1" parent="f1m_IaJI3R48xUZBdV02-344">
          <mxGeometry x="100" y="40" width="30" height="30" as="geometry" />
        </mxCell>
        <mxCell id="f1m_IaJI3R48xUZBdV02-265" value="" style="shape=cube;whiteSpace=wrap;html=1;boundedLbl=1;backgroundOutline=1;darkOpacity=0.05;darkOpacity2=0.1;size=10;aspect=fixed;fillColor=#dae8fc;strokeColor=#6c8ebf;" vertex="1" parent="f1m_IaJI3R48xUZBdV02-344">
          <mxGeometry x="80" y="40" width="30" height="30" as="geometry" />
        </mxCell>
        <mxCell id="f1m_IaJI3R48xUZBdV02-266" value="" style="shape=cube;whiteSpace=wrap;html=1;boundedLbl=1;backgroundOutline=1;darkOpacity=0.05;darkOpacity2=0.1;size=10;aspect=fixed;fillColor=#dae8fc;strokeColor=#6c8ebf;" vertex="1" parent="f1m_IaJI3R48xUZBdV02-344">
          <mxGeometry x="100" y="20" width="30" height="30" as="geometry" />
        </mxCell>
        <mxCell id="f1m_IaJI3R48xUZBdV02-267" value="" style="shape=cube;whiteSpace=wrap;html=1;boundedLbl=1;backgroundOutline=1;darkOpacity=0.05;darkOpacity2=0.1;size=10;aspect=fixed;fillColor=#dae8fc;strokeColor=#6c8ebf;" vertex="1" parent="f1m_IaJI3R48xUZBdV02-344">
          <mxGeometry x="80" y="20" width="30" height="30" as="geometry" />
        </mxCell>
        <mxCell id="f1m_IaJI3R48xUZBdV02-268" value="" style="shape=cube;whiteSpace=wrap;html=1;boundedLbl=1;backgroundOutline=1;darkOpacity=0.05;darkOpacity2=0.1;size=10;aspect=fixed;fillColor=#dae8fc;strokeColor=#6c8ebf;" vertex="1" parent="f1m_IaJI3R48xUZBdV02-344">
          <mxGeometry x="100" width="30" height="30" as="geometry" />
        </mxCell>
        <mxCell id="f1m_IaJI3R48xUZBdV02-269" value="" style="shape=cube;whiteSpace=wrap;html=1;boundedLbl=1;backgroundOutline=1;darkOpacity=0.05;darkOpacity2=0.1;size=10;aspect=fixed;fillColor=#dae8fc;strokeColor=#6c8ebf;" vertex="1" parent="f1m_IaJI3R48xUZBdV02-344">
          <mxGeometry x="80" width="30" height="30" as="geometry" />
        </mxCell>
        <mxCell id="f1m_IaJI3R48xUZBdV02-270" value="" style="shape=cube;whiteSpace=wrap;html=1;boundedLbl=1;backgroundOutline=1;darkOpacity=0.05;darkOpacity2=0.1;size=10;aspect=fixed;fillColor=#dae8fc;strokeColor=#6c8ebf;" vertex="1" parent="f1m_IaJI3R48xUZBdV02-344">
          <mxGeometry x="60" y="40" width="30" height="30" as="geometry" />
        </mxCell>
        <mxCell id="f1m_IaJI3R48xUZBdV02-271" value="" style="shape=cube;whiteSpace=wrap;html=1;boundedLbl=1;backgroundOutline=1;darkOpacity=0.05;darkOpacity2=0.1;size=10;aspect=fixed;fillColor=#dae8fc;strokeColor=#6c8ebf;" vertex="1" parent="f1m_IaJI3R48xUZBdV02-344">
          <mxGeometry x="40" y="40" width="30" height="30" as="geometry" />
        </mxCell>
        <mxCell id="f1m_IaJI3R48xUZBdV02-272" value="" style="shape=cube;whiteSpace=wrap;html=1;boundedLbl=1;backgroundOutline=1;darkOpacity=0.05;darkOpacity2=0.1;size=10;aspect=fixed;fillColor=#dae8fc;strokeColor=#6c8ebf;" vertex="1" parent="f1m_IaJI3R48xUZBdV02-344">
          <mxGeometry x="60" y="20" width="30" height="30" as="geometry" />
        </mxCell>
        <mxCell id="f1m_IaJI3R48xUZBdV02-273" value="" style="shape=cube;whiteSpace=wrap;html=1;boundedLbl=1;backgroundOutline=1;darkOpacity=0.05;darkOpacity2=0.1;size=10;aspect=fixed;fillColor=#dae8fc;strokeColor=#6c8ebf;" vertex="1" parent="f1m_IaJI3R48xUZBdV02-344">
          <mxGeometry x="40" y="20" width="30" height="30" as="geometry" />
        </mxCell>
        <mxCell id="f1m_IaJI3R48xUZBdV02-274" value="" style="shape=cube;whiteSpace=wrap;html=1;boundedLbl=1;backgroundOutline=1;darkOpacity=0.05;darkOpacity2=0.1;size=10;aspect=fixed;fillColor=#dae8fc;strokeColor=#6c8ebf;" vertex="1" parent="f1m_IaJI3R48xUZBdV02-344">
          <mxGeometry x="60" width="30" height="30" as="geometry" />
        </mxCell>
        <mxCell id="f1m_IaJI3R48xUZBdV02-275" value="" style="shape=cube;whiteSpace=wrap;html=1;boundedLbl=1;backgroundOutline=1;darkOpacity=0.05;darkOpacity2=0.1;size=10;aspect=fixed;fillColor=#dae8fc;strokeColor=#6c8ebf;" vertex="1" parent="f1m_IaJI3R48xUZBdV02-344">
          <mxGeometry x="40" width="30" height="30" as="geometry" />
        </mxCell>
        <mxCell id="f1m_IaJI3R48xUZBdV02-276" value="" style="shape=cube;whiteSpace=wrap;html=1;boundedLbl=1;backgroundOutline=1;darkOpacity=0.05;darkOpacity2=0.1;size=10;aspect=fixed;fillColor=#dae8fc;strokeColor=#6c8ebf;" vertex="1" parent="f1m_IaJI3R48xUZBdV02-344">
          <mxGeometry x="20" y="40" width="30" height="30" as="geometry" />
        </mxCell>
        <mxCell id="f1m_IaJI3R48xUZBdV02-277" value="" style="shape=cube;whiteSpace=wrap;html=1;boundedLbl=1;backgroundOutline=1;darkOpacity=0.05;darkOpacity2=0.1;size=10;aspect=fixed;fillColor=#dae8fc;strokeColor=#6c8ebf;" vertex="1" parent="f1m_IaJI3R48xUZBdV02-344">
          <mxGeometry x="20" y="20" width="30" height="30" as="geometry" />
        </mxCell>
        <mxCell id="f1m_IaJI3R48xUZBdV02-278" value="" style="shape=cube;whiteSpace=wrap;html=1;boundedLbl=1;backgroundOutline=1;darkOpacity=0.05;darkOpacity2=0.1;size=10;aspect=fixed;fillColor=#dae8fc;strokeColor=#6c8ebf;" vertex="1" parent="f1m_IaJI3R48xUZBdV02-344">
          <mxGeometry x="20" width="30" height="30" as="geometry" />
        </mxCell>
        <mxCell id="f1m_IaJI3R48xUZBdV02-279" value="" style="shape=cube;whiteSpace=wrap;html=1;boundedLbl=1;backgroundOutline=1;darkOpacity=0.05;darkOpacity2=0.1;size=10;aspect=fixed;fillColor=#dae8fc;strokeColor=#6c8ebf;" vertex="1" parent="f1m_IaJI3R48xUZBdV02-344">
          <mxGeometry y="40" width="30" height="30" as="geometry" />
        </mxCell>
        <mxCell id="f1m_IaJI3R48xUZBdV02-280" value="" style="shape=cube;whiteSpace=wrap;html=1;boundedLbl=1;backgroundOutline=1;darkOpacity=0.05;darkOpacity2=0.1;size=10;aspect=fixed;fillColor=#dae8fc;strokeColor=#6c8ebf;" vertex="1" parent="f1m_IaJI3R48xUZBdV02-344">
          <mxGeometry y="20" width="30" height="30" as="geometry" />
        </mxCell>
        <mxCell id="f1m_IaJI3R48xUZBdV02-281" value="" style="shape=cube;whiteSpace=wrap;html=1;boundedLbl=1;backgroundOutline=1;darkOpacity=0.05;darkOpacity2=0.1;size=10;aspect=fixed;fillColor=#dae8fc;strokeColor=#6c8ebf;" vertex="1" parent="f1m_IaJI3R48xUZBdV02-344">
          <mxGeometry width="30" height="30" as="geometry" />
        </mxCell>
      </root>
    </mxGraphModel>
  </diagram>
</mxfile>
